HIERARCHY
ROOT Root
{
  OFFSET 0.0 0.0 0.0
  CHANNELS 6 Xposition Yposition Zposition Zrotation Yrotation Xrotation
  JOINT Hips
  {
    OFFSET 0.0 100.0 0.0
    CHANNELS 6 Xposition Yposition Zposition Zrotation Yrotation Xrotation
    JOINT Spine1
    {
      OFFSET -0.013727 5.003763 -0.053727
      CHANNELS 3 Zrotation Yrotation Xrotation
      JOINT Spine2
      {
        OFFSET -0.0 7.125301 -0.029825
        CHANNELS 3 Zrotation Yrotation Xrotation
        JOINT Chest
        {
          OFFSET -1e-06 7.550063 -0.815971
          CHANNELS 3 Zrotation Yrotation Xrotation
          JOINT Neck1
          {
            OFFSET -0.181677 26.311295 -0.553348
            CHANNELS 3 Zrotation Yrotation Xrotation
            JOINT Neck2
            {
              OFFSET -3e-06 7.709397 2.302585
              CHANNELS 3 Zrotation Yrotation Xrotation
              JOINT Head
              {
                OFFSET -5e-06 6.128916 1.953709
                CHANNELS 3 Zrotation Yrotation Xrotation
                JOINT HeadEnd
                {
                  OFFSET 0.003598 16.065403 -1.835379
                  CHANNELS 3 Zrotation Yrotation Xrotation
                }
                JOINT Jaw
                {
                  OFFSET 0.002637 0.475592 3.094941
                  CHANNELS 3 Zrotation Yrotation Xrotation
                }
                JOINT LeftEye
                {
                  OFFSET 3.206381 5.380205 7.586883
                  CHANNELS 3 Zrotation Yrotation Xrotation
                }
                JOINT RightEye
                {
                  OFFSET -3.22244 5.361869 7.558234
                  CHANNELS 3 Zrotation Yrotation Xrotation
                }
              }
            }
          }
          JOINT LeftShoulder
          {
            OFFSET 1.621652 23.237164 5.113413
            CHANNELS 3 Zrotation Yrotation Xrotation
            JOINT LeftArm
            {
              OFFSET 14.919846 2e-06 -5.502326
              CHANNELS 3 Zrotation Yrotation Xrotation
              JOINT LeftForeArm
              {
                OFFSET 28.739307 0.0 -0.002588
                CHANNELS 3 Zrotation Yrotation Xrotation
                JOINT LeftHand
                {
                  OFFSET 27.093981 -1e-06 0.002609
                  CHANNELS 3 Zrotation Yrotation Xrotation
                  JOINT LeftHandThumb1
                  {
                    OFFSET 2.276482 -1.392045 3.191413
                    CHANNELS 3 Zrotation Yrotation Xrotation
                    JOINT LeftHandThumb2
                    {
                      OFFSET 4.012836 -1.828127 1.641654
                      CHANNELS 3 Zrotation Yrotation Xrotation
                      JOINT LeftHandThumb3
                      {
                        OFFSET 2.798515 0.0 -3e-06
                        CHANNELS 3 Zrotation Yrotation Xrotation
                        JOINT LeftHandThumbEnd
                        {
                          OFFSET 3.180793 -4e-06 4e-06
                          CHANNELS 3 Zrotation Yrotation Xrotation
                        }
                      }
                    }
                  }
                  JOINT LeftHandIndex1
                  {
                    OFFSET 3.247555 -0.531998 2.296169
                    CHANNELS 3 Zrotation Yrotation Xrotation
                    JOINT LeftHandIndex2
                    {
                      OFFSET 6.364578 0.01206 0.1786
                      CHANNELS 3 Zrotation Yrotation Xrotation
                      JOINT LeftHandIndex3
                      {
                        OFFSET 3.662364 0.0 0.0
                        CHANNELS 3 Zrotation Yrotation Xrotation
                        JOINT LeftHandIndex4
                        {
                          OFFSET 2.329242 4e-06 4e-06
                          CHANNELS 3 Zrotation Yrotation Xrotation
                          JOINT LeftHandIndexEnd
                          {
                            OFFSET 2.759615 -0.180537 -0.113024
                            CHANNELS 3 Zrotation Yrotation Xrotation
                          }
                        }
                      }
                    }
                  }
                  JOINT LeftHandMiddle1
                  {
                    OFFSET 3.163495 0.240981 1.000332
                    CHANNELS 3 Zrotation Yrotation Xrotation
                    JOINT LeftHandMiddle2
                    {
                      OFFSET 6.19078 -0.259278 -1.002548
                      CHANNELS 3 Zrotation Yrotation Xrotation
                      JOINT LeftHandMiddle3
                      {
                        OFFSET 4.35652 -4e-06 -1e-06
                        CHANNELS 3 Zrotation Yrotation Xrotation
                        JOINT LeftHandMiddle4
                        {
                          OFFSET 2.996877 -8e-06 0.0
                          CHANNELS 3 Zrotation Yrotation Xrotation
                          JOINT LeftHandMiddleEnd
                          {
                            OFFSET 2.304287 -0.294569 -0.031741
                            CHANNELS 3 Zrotation Yrotation Xrotation
                          }
                        }
                      }
                    }
                  }
                  JOINT LeftHandRing1
                  {
                    OFFSET 2.882643 -0.053652 -0.322543
                    CHANNELS 3 Zrotation Yrotation Xrotation
                    JOINT LeftHandRing2
                    {
                      OFFSET 5.854541 -0.486202 -1.373841
                      CHANNELS 3 Zrotation Yrotation Xrotation
                      JOINT LeftHandRing3
                      {
                        OFFSET 4.350578 0.0 3e-06
                        CHANNELS 3 Zrotation Yrotation Xrotation
                        JOINT LeftHandRing4
                        {
                          OFFSET 2.651321 7e-06 2e-06
                          CHANNELS 3 Zrotation Yrotation Xrotation
                          JOINT LeftHandRingEnd
                          {
                            OFFSET 1.936105 0.077687 -7.1e-05
                            CHANNELS 3 Zrotation Yrotation Xrotation
                          }
                        }
                      }
                    }
                  }
                  JOINT LeftHandPinky1
                  {
                    OFFSET 2.8655 -0.310005 -1.600378
                    CHANNELS 3 Zrotation Yrotation Xrotation
                    JOINT LeftHandPinky2
                    {
                      OFFSET 5.087849 -1.331141 -1.77123
                      CHANNELS 3 Zrotation Yrotation Xrotation
                      JOINT LeftHandPinky3
                      {
                        OFFSET 3.070974 4e-06 0.0
                        CHANNELS 3 Zrotation Yrotation Xrotation
                        JOINT LeftHandPinky4
                        {
                          OFFSET 1.549672 0.0 1e-06
                          CHANNELS 3 Zrotation Yrotation Xrotation
                          JOINT LeftHandPinkyEnd
                          {
                            OFFSET 1.944893 -0.157802 0.057219
                            CHANNELS 3 Zrotation Yrotation Xrotation
                          }
                        }
                      }
                    }
                  }
                }
              }
            }
          }
          JOINT RightShoulder
          {
            OFFSET -1.380118 23.180309 5.214158
            CHANNELS 3 Zrotation Yrotation Xrotation
            JOINT RightArm
            {
              OFFSET -15.037196 1.2e-05 -5.545604
              CHANNELS 3 Zrotation Yrotation Xrotation
              JOINT RightForeArm
              {
                OFFSET -28.736639 2e-06 -0.002597
                CHANNELS 3 Zrotation Yrotation Xrotation
                JOINT RightHand
                {
                  OFFSET -27.133619 -0.0 0.002613
                  CHANNELS 3 Zrotation Yrotation Xrotation
                  JOINT RightHandThumb1
                  {
                    OFFSET -2.274032 -1.383988 3.163127
                    CHANNELS 3 Zrotation Yrotation Xrotation
                    JOINT RightHandThumb2
                    {
                      OFFSET -4.011429 -1.827466 1.640914
                      CHANNELS 3 Zrotation Yrotation Xrotation
                      JOINT RightHandThumb3
                      {
                        OFFSET -2.794935 -4e-06 -3e-06
                        CHANNELS 3 Zrotation Yrotation Xrotation
                        JOINT RightHandThumbEnd
                        {
                          OFFSET -3.183852 4e-06 1e-06
                          CHANNELS 3 Zrotation Yrotation Xrotation
                        }
                      }
                    }
                  }
                  JOINT RightHandIndex1
                  {
                    OFFSET -3.253266 -0.520057 2.282866
                    CHANNELS 3 Zrotation Yrotation Xrotation
                    JOINT RightHandIndex2
                    {
                      OFFSET -6.341917 0.012471 0.178266
                      CHANNELS 3 Zrotation Yrotation Xrotation
                      JOINT RightHandIndex3
                      {
                        OFFSET -3.654871 -8e-06 -0.0
                        CHANNELS 3 Zrotation Yrotation Xrotation
                        JOINT RightHandIndex4
                        {
                          OFFSET -2.327586 0.0 1e-06
                          CHANNELS 3 Zrotation Yrotation Xrotation
                          JOINT RightHandIndexEnd
                          {
                            OFFSET -2.76179 -0.180656 -0.113078
                            CHANNELS 3 Zrotation Yrotation Xrotation
                          }
                        }
                      }
                    }
                  }
                  JOINT RightHandMiddle1
                  {
                    OFFSET -3.168106 0.246593 1.00103
                    CHANNELS 3 Zrotation Yrotation Xrotation
                    JOINT RightHandMiddle2
                    {
                      OFFSET -6.180828 -0.258836 -1.000895
                      CHANNELS 3 Zrotation Yrotation Xrotation
                      JOINT RightHandMiddle3
                      {
                        OFFSET -4.348901 0.0 -0.0
                        CHANNELS 3 Zrotation Yrotation Xrotation
                        JOINT RightHandMiddle4
                        {
                          OFFSET -3.00024 -4e-06 -2e-06
                          CHANNELS 3 Zrotation Yrotation Xrotation
                          JOINT RightHandMiddleEnd
                          {
                            OFFSET -2.30252 -0.29437 -0.031706
                            CHANNELS 3 Zrotation Yrotation Xrotation
                          }
                        }
                      }
                    }
                  }
                  JOINT RightHandRing1
                  {
                    OFFSET -2.88569 -0.067952 -0.308858
                    CHANNELS 3 Zrotation Yrotation Xrotation
                    JOINT RightHandRing2
                    {
                      OFFSET -5.854198 -0.48613 -1.373731
                      CHANNELS 3 Zrotation Yrotation Xrotation
                      JOINT RightHandRing3
                      {
                        OFFSET -4.33881 -4e-06 -0.0
                        CHANNELS 3 Zrotation Yrotation Xrotation
                        JOINT RightHandRing4
                        {
                          OFFSET -2.654903 -4e-06 4e-06
                          CHANNELS 3 Zrotation Yrotation Xrotation
                          JOINT RightHandRingEnd
                          {
                            OFFSET -1.933568 0.077527 -5.2e-05
                            CHANNELS 3 Zrotation Yrotation Xrotation
                          }
                        }
                      }
                    }
                  }
                  JOINT RightHandPinky1
                  {
                    OFFSET -2.866425 -0.342796 -1.584145
                    CHANNELS 3 Zrotation Yrotation Xrotation
                    JOINT RightHandPinky2
                    {
                      OFFSET -5.091371 -1.332055 -1.772385
                      CHANNELS 3 Zrotation Yrotation Xrotation
                      JOINT RightHandPinky3
                      {
                        OFFSET -3.062664 -4e-06 1e-06
                        CHANNELS 3 Zrotation Yrotation Xrotation
                        JOINT RightHandPinky4
                        {
                          OFFSET -1.546529 4e-06 -2e-06
                          CHANNELS 3 Zrotation Yrotation Xrotation
                          JOINT RightHandPinkyEnd
                          {
                            OFFSET -1.945119 -0.157718 0.057211
                            CHANNELS 3 Zrotation Yrotation Xrotation
                          }
                        }
                      }
                    }
                  }
                }
              }
            }
          }
        }
      }
    }
    JOINT LeftLeg
    {
      OFFSET 10.043214 -8.434526 2.595655
      CHANNELS 3 Zrotation Yrotation Xrotation
      JOINT LeftShin
      {
        OFFSET -1e-06 -43.221752 -0.802913
        CHANNELS 3 Zrotation Yrotation Xrotation
        JOINT LeftFoot
        {
          OFFSET 1e-06 -42.155094 -3.481523
          CHANNELS 3 Zrotation Yrotation Xrotation
          JOINT LeftToeBase
          {
            OFFSET 0.0 -5.059472 13.231529
            CHANNELS 3 Zrotation Yrotation Xrotation
            JOINT LeftToeEnd
            {
              OFFSET -0.009607 -1.647619 6.513017
              CHANNELS 3 Zrotation Yrotation Xrotation
            }
          }
        }
      }
    }
    JOINT RightLeg
    {
      OFFSET -10.047278 -8.29526 2.620317
      CHANNELS 3 Zrotation Yrotation Xrotation
      JOINT RightShin
      {
        OFFSET 1e-06 -43.362206 -0.805556
        CHANNELS 3 Zrotation Yrotation Xrotation
        JOINT RightFoot
        {
          OFFSET 2e-06 -42.117393 -3.478398
          CHANNELS 3 Zrotation Yrotation Xrotation
          JOINT RightToeBase
          {
            OFFSET -0.0 -5.079609 13.284196
            CHANNELS 3 Zrotation Yrotation Xrotation
            JOINT RightToeEnd
            {
              OFFSET 0.009532 -1.634378 6.460591
              CHANNELS 3 Zrotation Yrotation Xrotation
            }
          }
        }
      }
    }
  }
}
MOTION
Frames: 5
Frame Time: 0.03333333333333333
0.0 0.0 0.0 0.0 -0.0 0.0 103.017044 99.4618 112.626755 90.105911 88.052376 86.424599 -1.48135 -0.110803 2.322855 -1.200704 -2.820121 -3.788374 -5.184665 -4.511755 11.822319 6.512722 1.430546 4.50328 1.965621 10.115149 -3.231641 -6.083317 16.213776 -7.184923 7.7e-05 -2.1e-05 6e-06 0.009835 -0.043118 -0.089655 0.682274 -3.829946 -10.66863 -0.658956 3.756846 -10.737595 -10.791113 -9.04662 17.706467 -55.036499 -6.097202 -6.022927 -2.49701 -22.834455 0.669636 -2.63087 3.198829 -2.658855 -5.882104 9.861284 0.702591 -10.936866 -0.360574 7.156206 -0.0 8.774823 -0.0 -16.061041 16.372911 4.612839 -1.844032 2.498504 -2.507277 -10.163596 4.678945 4.621109 -20.976015 -1e-06 4e-06 -21.226273 2.451698 -3.593999 -1e-06 -6e-06 0.0 -1.362681 2.240797 -0.746322 -21.334906 0.584912 3.008324 -13.821208 -1e-06 3e-06 -23.887159 -0.249075 -0.839482 -58.702866 1.941221 -1.436959 -0.294024 1.679687 0.833256 -14.218203 0.093216 1.300582 -34.212036 -0.287559 0.967171 -20.033209 0.964538 1.212842 0.0 -1e-06 -2e-06 -3.440387 0.788233 0.501658 -15.928181 -3.167308 2.999708 -6.338825 -1e-06 3e-06 -18.12344 3.648183 -4.905666 -3e-06 -0.0 -2e-06 -11.858238 3.023675 11.118095 5.417778 -25.936096 -43.734497 -3.190339 10.76833 -0.543413 -22.073687 -16.005768 -42.231678 2.243541 -5.255034 -3.180157 14.282887 -0.826593 6.952503 -1e-06 -12.690601 -1e-06 15.630063 -18.01144 3.663564 1.665665 -1.955923 -2.878298 4.7278 -4.170585 4.993921 11.020524 4e-06 -0.0 12.109053 -3.735715 -2.866782 1e-06 0.0 -0.0 1.291983 -1.928549 -1.498087 14.800125 0.567469 3.865607 14.24257 -1.341735 -6.660655 19.631966 0.143927 -0.648243 51.455505 -0.969602 -6.531909 0.353028 -1.511149 -0.031939 20.222786 3.684309 2.316631 18.78727 5e-06 0.0 10.751627 -0.479869 1.397906 0.0 2e-06 -1e-06 3.273806 0.305949 -0.58011 21.486813 11.830371 2.266132 8.162927 1e-06 0.0 18.39908 -3.798985 -4.940572 3e-06 -1e-06 -1e-06 14.609934 23.498737 -3.34709 -0.181004 -0.825364 57.479069 -14.310216 -0.922254 25.046734 1.744655 -1.600964 -4.667257 0.0 -0.0 2e-06 2.873704 1.645741 -10.234792 0.101931 -0.276684 17.978075 -4.83088 -7.762391 -1.07499 -1.327469 1.167827 3.276617 -0.0 0.0 -1e-06
0.0 0.0 0.0 0.0 -0.0 0.0 103.230049 99.548935 112.291695 85.857872 87.445259 82.254532 -1.859755 -0.310848 1.373919 -1.322247 -2.951216 -4.048938 -5.643501 -4.999299 11.116919 7.723669 1.140506 3.69139 2.195396 11.17963 -3.174752 -5.468653 17.774328 -6.636448 7.7e-05 -2e-05 6e-06 0.003832 -0.055012 -0.091268 0.698182 -3.834057 -10.703748 -0.684299 3.737632 -10.777821 -9.852746 -9.48211 17.809183 -57.332977 -4.222505 -7.154495 -1.417252 -22.749794 0.544615 -1.196575 2.734067 -3.899954 -5.882107 9.861288 0.702591 -10.936872 -0.360574 7.156208 -0.0 8.774827 -0.0 -16.095518 16.51133 4.904701 -1.844032 2.498504 -2.507278 -10.163599 4.678946 4.62111 -20.976023 -2e-06 4e-06 -21.226286 2.451699 -3.593999 -1e-06 -7e-06 -1e-06 -1.362681 2.240798 -0.746324 -21.334911 0.584911 3.008325 -13.821212 -1e-06 4e-06 -23.887167 -0.249075 -0.839483 -59.312119 1.97396 -1.313604 -0.294024 1.679687 0.833257 -14.218207 0.093215 1.300582 -34.212048 -0.287561 0.967173 -20.033211 0.96454 1.212843 -1e-06 -0.0 -2e-06 -3.440389 0.788234 0.501656 -15.928185 -3.167309 2.999708 -6.338828 -1e-06 3e-06 -18.123444 3.648186 -4.905668 -3e-06 -0.0 -2e-06 -12.447305 2.231923 11.0282 2.511782 -28.142204 -38.835678 -0.753182 11.281844 -0.513736 -17.292212 -12.263519 -42.203377 2.243543 -5.255039 -3.180159 14.282896 -0.826595 6.952508 -2e-06 -12.69061 -1e-06 15.695596 -17.955971 3.318507 1.665667 -1.955922 -2.8783 4.727802 -4.170587 4.993927 11.02053 6e-06 0.0 12.109057 -3.735716 -2.866786 0.0 -0.0 -0.0 1.291986 -1.928549 -1.498091 14.800138 0.567469 3.86561 14.242577 -1.341738 -6.660661 19.631975 0.143923 -0.648243 50.486874 -1.040629 -6.426127 0.353028 -1.51115 -0.03194 20.222801 3.684312 2.316633 18.787283 6e-06 1e-06 10.751633 -0.479869 1.397907 0.0 0.0 -1e-06 3.273809 0.305947 -0.580111 21.486824 11.83038 2.266137 8.16293 3e-06 1e-06 18.399088 -3.798985 -4.940574 3e-06 0.0 -1e-06 13.16297 21.537741 -0.682992 -0.105094 -0.904247 51.600719 -17.981894 -1.558671 29.266319 1.883711 -1.611996 -6.465715 -0.0 -0.0 2e-06 2.099979 2.912471 -9.604735 0.051707 -0.325289 17.268658 -4.245005 -8.039762 -1.2561 -1.337523 1.185696 2.959165 0.0 0.0 -1e-06
0.0 0.0 0.0 0.0 -0.0 0.0 103.470871 99.654297 111.986946 87.210754 87.194878 83.644463 -2.053861 -0.425001 0.648151 -1.457355 -2.994187 -4.320436 -5.880849 -5.290877 10.584649 8.897614 0.737363 3.396057 2.357676 11.773316 -3.115803 -4.781178 18.710495 -6.036635 7.7e-05 -2.1e-05 6e-06 0.000675 -0.08626 -0.075909 0.692069 -3.861729 -10.719517 -0.682839 3.703002 -10.796758 -9.143541 -9.625818 17.651115 -59.107994 -2.21327 -6.807836 -0.385632 -25.165762 0.304717 0.265443 1.010103 -6.919712 -5.882111 9.861292 0.702593 -10.93688 -0.360575 7.156209 0.0 8.774831 -2e-06 -16.075274 16.829731 5.185334 -1.844034 2.498506 -2.507278 -10.163609 4.678948 4.621109 -20.97604 -2e-06 5e-06 -21.226303 2.4517 -3.594002 -0.0 -6e-06 1e-06 -1.362682 2.240798 -0.746323 -21.33493 0.58491 3.008326 -13.821225 -2e-06 5e-06 -23.887188 -0.249077 -0.839482 -59.747627 2.045357 -1.303894 -0.294025 1.679689 0.833256 -14.218221 0.093215 1.300581 -34.212078 -0.287563 0.967173 -20.03323 0.964538 1.212846 0.0 -1e-06 -1e-06 -3.440392 0.788234 0.501656 -15.928201 -3.167312 2.999709 -6.338832 -0.0 2e-06 -18.123463 3.648185 -4.905674 -3e-06 0.0 -3e-06 -12.340373 1.276721 10.942532 0.36725 -29.849354 -34.817711 0.901675 12.722844 -0.549262 -14.827398 -9.033567 -42.215462 2.243543 -5.255041 -3.180159 14.282903 -0.8266 6.95251 2e-06 -12.690618 -0.0 15.79038 -17.875082 3.173099 1.665671 -1.955923 -2.878302 4.727803 -4.170592 4.99393 11.020534 1e-06 1e-06 12.10906 -3.735721 -2.866785 -1e-06 0.0 0.0 1.291985 -1.928553 -1.498089 14.80014 0.567468 3.865614 14.242581 -1.34174 -6.660661 19.631983 0.143921 -0.648242 49.912067 -1.105088 -6.426603 0.353028 -1.511149 -0.031939 20.222805 3.684309 2.316636 18.787287 -1e-06 2e-06 10.751637 -0.479872 1.39791 0.0 0.0 -1e-06 3.273809 0.305946 -0.58011 21.486828 11.830384 2.26614 8.162936 -1e-06 -0.0 18.399099 -3.798994 -4.940578 3e-06 2e-06 0.0 12.212032 20.150488 1.820855 -0.04375 -0.925818 46.77906 -18.917454 -0.894362 30.541977 2.006217 -1.666845 -8.439078 0.0 0.0 2e-06 1.641335 4.160975 -8.677758 0.015544 -0.340582 15.856822 -3.799597 -8.581114 -0.901621 -1.351794 1.195178 2.343341 0.0 0.0 -1e-06
0.0 0.0 0.0 0.0 -0.0 0.0 103.546906 99.640358 111.717438 88.166534 87.089058 84.472542 -2.174874 -0.459227 0.162747 -1.50414 -3.003766 -4.545949 -6.068121 -5.370484 10.3133 9.639399 0.497906 3.46978 2.620767 12.041233 -3.011453 -4.427707 19.315767 -5.384969 7.7e-05 -2.4e-05 6e-06 0.002678 -0.099043 -0.080135 0.679749 -3.879718 -10.731525 -0.666446 3.695631 -10.812515 -9.160224 -9.714448 17.235035 -59.093788 -0.664022 -5.033792 -0.303576 -27.75971 0.268028 -0.10063 0.386638 -7.3346 -5.882107 9.861285 0.702589 -10.936873 -0.360575 7.156207 2e-06 8.774826 1e-06 -15.969285 17.082785 5.240446 -1.844032 2.498503 -2.507277 -10.163602 4.678944 4.621109 -20.976027 -5e-06 4e-06 -21.226292 2.451694 -3.593998 -2e-06 -6e-06 1e-06 -1.362682 2.240798 -0.746323 -21.334919 0.584908 3.008324 -13.821215 -3e-06 2e-06 -23.887175 -0.24908 -0.839481 -59.548958 2.162221 -1.428523 -0.294024 1.679687 0.833256 -14.218212 0.093214 1.300581 -34.212051 -0.287565 0.967171 -20.033218 0.964536 1.212844 1e-06 0.0 -0.0 -3.440389 0.788232 0.501656 -15.928189 -3.16731 2.999707 -6.338828 -3e-06 1e-06 -18.123446 3.648182 -4.905669 -3e-06 -0.0 -2e-06 -11.674296 0.625892 10.713794 -1.185201 -30.819166 -33.070839 0.860278 13.278948 -0.704351 -13.916401 -7.657913 -42.071724 2.243544 -5.255038 -3.180159 14.282896 -0.826596 6.952506 -1e-06 -12.690605 -0.0 15.83785 -17.804903 3.190482 1.665667 -1.955922 -2.878299 4.727801 -4.170588 4.993925 11.020525 3e-06 -1e-06 12.109053 -3.735718 -2.866785 -1e-06 -1e-06 -1e-06 1.291988 -1.928551 -1.49809 14.800131 0.567469 3.865611 14.242572 -1.341736 -6.660658 19.631969 0.143926 -0.648246 50.00518 -1.023869 -6.451548 0.35303 -1.511151 -0.031941 20.22279 3.68431 2.316632 18.787273 3e-06 0.0 10.751629 -0.479869 1.397907 0.0 1e-06 -1e-06 3.27381 0.305948 -0.580111 21.486814 11.830376 2.266137 8.16293 -1e-06 0.0 18.399084 -3.798986 -4.940577 3e-06 1e-06 0.0 11.643003 19.57056 3.997753 -0.041747 -0.902987 44.00684 -17.923874 0.116985 29.903471 2.082224 -1.72948 -10.641084 1e-06 -0.0 2e-06 1.230883 4.883835 -8.12778 0.010833 -0.311098 15.326015 -2.900086 -8.54947 -1.169199 -1.365479 1.172258 1.687323 0.0 0.0 -1e-06
0.0 0.0 0.0 0.0 -0.0 0.0 103.410316 99.553833 111.471382 90.435692 87.260399 86.475594 -2.131098 -0.495161 -0.0654 -1.475442 -3.152776 -4.720072 -6.218066 -5.392544 10.226739 10.113121 0.460742 3.699023 2.714085 12.225089 -2.90491 -4.142519 19.781446 -4.931118 7.7e-05 -2.3e-05 6e-06 0.000129 -0.135573 -0.094659 0.675129 -3.893745 -10.693241 -0.669472 3.63714 -10.780302 -9.123454 -9.921082 16.969959 -58.501678 -0.042558 -3.418651 -0.531792 -29.460245 0.411421 -0.853044 0.454026 -6.125204 -5.882109 9.861286 0.702589 -10.936877 -0.360576 7.156206 1e-06 8.774827 -2e-06 -15.792909 17.182524 5.349562 -1.844034 2.498506 -2.507278 -10.163604 4.678944 4.621107 -20.976032 -5e-06 1e-06 -21.226295 2.451695 -3.594 0.0 -7e-06 0.0 -1.362682 2.240798 -0.746323 -21.334925 0.584907 3.008322 -13.82122 -5e-06 1e-06 -23.88718 -0.249081 -0.839483 -59.405754 2.113497 -1.376063 -0.294025 1.679687 0.833257 -14.218215 0.093214 1.300577 -34.212067 -0.287568 0.967169 -20.033224 0.964534 1.212843 1e-06 -1e-06 -0.0 -3.440389 0.788233 0.501656 -15.928192 -3.16731 2.999705 -6.33883 -2e-06 2e-06 -18.123455 3.648182 -4.905671 -4e-06 1e-06 -2e-06 -11.100752 0.330945 10.577893 -2.140572 -31.327089 -31.938101 0.207399 13.190928 -0.755439 -12.874202 -6.631261 -42.048683 2.243543 -5.255042 -3.180159 14.282899 -0.8266 6.952509 1e-06 -12.690616 0.0 15.965274 -17.663212 3.078478 1.665668 -1.955922 -2.8783 4.727801 -4.170593 4.993929 11.020535 -0.0 -0.0 12.10906 -3.735722 -2.866784 0.0 -1e-06 -1e-06 1.291986 -1.92855 -1.49809 14.800139 0.567466 3.86561 14.242581 -1.341741 -6.660659 19.631979 0.143923 -0.648245 50.221237 -0.875123 -6.447804 0.35303 -1.511151 -0.031941 20.222805 3.684307 2.316632 18.787287 -1e-06 -1e-06 10.751635 -0.47987 1.397905 0.0 0.0 -1e-06 3.27381 0.305947 -0.580111 21.486826 11.83038 2.266135 8.162933 -0.0 0.0 18.399097 -3.798992 -4.94058 3e-06 1e-06 -0.0 11.560271 19.432482 5.908448 -0.003302 -0.876384 42.191292 -16.279045 0.616007 29.453583 2.099311 -1.758943 -13.211405 1e-06 -0.0 0.0 1.064157 5.17031 -8.039916 0.024823 -0.282934 15.694887 -1.79641 -8.223318 -1.906541 -1.372528 1.136254 1.155887 -0.0 -0.0 -1e-06
